<?xml version="1.0" encoding="utf-8"?>
<!-- Generator: Adobe Illustrator 25.3.1, SVG Export Plug-In . SVG Version: 6.00 Build 0)  -->
<svg version="1.1" id="Layer_1" xmlns="http://www.w3.org/2000/svg" xmlns:xlink="http://www.w3.org/1999/xlink" x="0px" y="0px"
	 viewBox="0 0 1915.2 246.5" style="enable-background:new 0 0 1915.2 246.5;" xml:space="preserve">
<style type="text/css">
	.st0{display:none;}
	.st1{display:inline;}
	.st2{font-family:'HelveticaNeue-Bold';}
	.st3{font-size:339.0517px;}
	.st4{letter-spacing:-8;}
	.st5{letter-spacing:-7;}
	.st6{letter-spacing:-3;}
	.st7{letter-spacing:-13;}
	.st8{letter-spacing:-9;}
	.st9{letter-spacing:-14;}
	.st10{letter-spacing:-10;}
	.st11{letter-spacing:-15;}
	.st12{letter-spacing:-20;}
</style>
<text transform="matrix(1 0 0 1 43.5519 790.0339)" class="st0"><tspan x="0" y="0" class="st1 st2 st3 st4">T</tspan><tspan x="199" y="0" class="st1 st2 st3 st5">i</tspan><tspan x="279.4" y="0" class="st1 st2 st3 st6">t</tspan><tspan x="395.3" y="0" class="st1 st2 st3 st7">l</tspan><tspan x="469.2" y="0" class="st1 st2 st3 st8">e</tspan><tspan x="654.4" y="0" class="st1 st2 st3 st8">c</tspan><tspan x="839.1" y="0" class="st1 st2 st3 st9">a</tspan><tspan x="1019.2" y="0" class="st1 st2 st3 st10">s</tspan><tspan x="1191.1" y="0" class="st1 st2 st3 st11">e</tspan><tspan x="1369.7" y="0" class="st1 st2 st3 st12">.</tspan><tspan x="1443.7" y="0" class="st1 st2 st3 st11">m</tspan><tspan x="1734.9" y="0" class="st1 st2 st3 st6">e</tspan></text>
<g>
	<path d="M48,592.7V548h198.3v44.8h-72.6V790h-53.2V592.7H48z"/>
	<path d="M262.2,587.6V548h48.1v39.7H262.2z M310.4,614.7V790h-48.1V614.7H310.4z"/>
	<path d="M437.5,614.7V647h-35.3v86.8c0,8.1,1.4,13.6,4.1,16.3c2.7,2.7,8.1,4.1,16.3,4.1c2.7,0,5.3-0.1,7.8-0.3
		c2.5-0.2,4.9-0.6,7.1-1V790c-4.1,0.7-8.6,1.1-13.6,1.4c-5,0.2-9.8,0.3-14.6,0.3c-7.5,0-14.5-0.5-21.2-1.5c-6.7-1-12.5-3-17.6-5.9
		c-5.1-2.9-9.1-7.1-12-12.5c-2.9-5.4-4.4-12.5-4.4-21.4V647H325v-32.2h29.2v-52.6h48.1v52.6H437.5z"/>
	<path d="M506.7,548V790h-48.1V548H506.7z"/>
	<path d="M582.6,748c7.2,7,17.6,10.5,31.2,10.5c9.7,0,18.1-2.4,25.1-7.3c7-4.9,11.3-10,12.9-15.4h42.4c-6.8,21-17.2,36.1-31.2,45.1
		c-14,9-31,13.6-50.9,13.6c-13.8,0-26.2-2.2-37.3-6.6c-11.1-4.4-20.5-10.7-28.1-18.8c-7.7-8.1-13.6-17.9-17.8-29.2
		c-4.2-11.3-6.3-23.7-6.3-37.3c0-13.1,2.1-25.3,6.4-36.6c4.3-11.3,10.4-21.1,18.3-29.3c7.9-8.2,17.3-14.7,28.3-19.5
		c11-4.7,23.1-7.1,36.4-7.1c14.9,0,27.9,2.9,39,8.6c11.1,5.8,20.2,13.5,27.3,23.2c7.1,9.7,12.3,20.8,15.4,33.2
		c3.2,12.4,4.3,25.4,3.4,39H570.8C571.4,729.7,575.4,741,582.6,748z M637.1,655.8c-5.8-6.3-14.5-9.5-26.3-9.5
		c-7.7,0-14.1,1.3-19.2,3.9c-5.1,2.6-9.2,5.8-12.2,9.7c-3.1,3.8-5.2,7.9-6.4,12.2c-1.2,4.3-2,8.1-2.2,11.5h78.3
		C646.8,671.4,642.8,662.1,637.1,655.8z"/>
	<path d="M800,646.3c-7.7,0-14.1,1.8-19.3,5.3c-5.2,3.5-9.4,8-12.7,13.6c-3.3,5.5-5.6,11.6-7,18.3c-1.4,6.7-2,13.3-2,19.8
		c0,6.3,0.7,12.8,2,19.3c1.4,6.6,3.6,12.5,6.6,17.8c3.1,5.3,7.2,9.7,12.4,13.1c5.2,3.4,11.5,5.1,19,5.1c11.5,0,20.4-3.2,26.6-9.7
		c6.2-6.4,10.1-15.1,11.7-25.9h46.5c-3.2,23.3-12.2,41-27.1,53.2c-14.9,12.2-34,18.3-57.3,18.3c-13.1,0-25.1-2.2-36.1-6.6
		c-11-4.4-20.3-10.6-28-18.5c-7.7-7.9-13.7-17.3-18-28.3c-4.3-11-6.4-23-6.4-36.1c0-13.6,2-26.2,5.9-37.8c4-11.6,9.8-21.7,17.5-30.2
		c7.7-8.5,17.1-15.1,28.1-19.8c11.1-4.7,23.7-7.1,38-7.1c10.4,0,20.4,1.4,30,4.1c9.6,2.7,18.2,6.8,25.8,12.4
		c7.6,5.5,13.7,12.4,18.5,20.7c4.7,8.3,7.5,18,8.1,29.3h-47.1C832.4,656.3,820.5,646.3,800,646.3z"/>
	<path d="M899,668.7c0.7-11.3,3.5-20.7,8.5-28.1c5-7.5,11.3-13.4,19-18c7.7-4.5,16.3-7.7,25.9-9.7c9.6-1.9,19.3-2.9,29-2.9
		c8.8,0,17.7,0.6,26.8,1.9c9,1.2,17.3,3.7,24.8,7.3c7.5,3.6,13.6,8.6,18.3,15.1c4.7,6.4,7.1,15,7.1,25.6V751
		c0,7.9,0.5,15.5,1.4,22.7c0.9,7.2,2.5,12.7,4.7,16.3h-48.8c-0.9-2.7-1.6-5.5-2.2-8.3c-0.6-2.8-1-5.7-1.2-8.6
		c-7.7,7.9-16.7,13.5-27.1,16.6c-10.4,3.2-21,4.7-31.9,4.7c-8.4,0-16.2-1-23.4-3.1c-7.2-2-13.6-5.2-19-9.5
		c-5.4-4.3-9.7-9.7-12.7-16.3c-3.1-6.6-4.6-14.4-4.6-23.4c0-9.9,1.7-18.1,5.3-24.6c3.5-6.4,8-11.6,13.6-15.4
		c5.5-3.8,11.9-6.7,19-8.6c7.1-1.9,14.3-3.4,21.5-4.6c7.2-1.1,14.4-2,21.4-2.7c7-0.7,13.2-1.7,18.6-3.1s9.7-3.3,12.9-5.9
		c3.2-2.6,4.6-6.4,4.4-11.4c0-5.2-0.8-9.3-2.5-12.4c-1.7-3.1-4-5.4-6.8-7.1c-2.8-1.7-6.1-2.8-9.8-3.4c-3.7-0.6-7.7-0.8-12-0.8
		c-9.5,0-17,2-22.4,6.1s-8.6,10.8-9.5,20.3H899z M1010.2,704.3c-2,1.8-4.6,3.2-7.6,4.2c-3.1,1-6.3,1.9-9.8,2.5
		c-3.5,0.7-7.2,1.2-11,1.7c-3.8,0.5-7.7,1-11.5,1.7c-3.6,0.7-7.2,1.6-10.7,2.7c-3.5,1.1-6.6,2.7-9.2,4.6c-2.6,1.9-4.7,4.4-6.3,7.3
		c-1.6,2.9-2.4,6.7-2.4,11.2c0,4.3,0.8,7.9,2.4,10.8c1.6,2.9,3.7,5.3,6.4,7c2.7,1.7,5.9,2.9,9.5,3.6c3.6,0.7,7.3,1,11.2,1
		c9.5,0,16.8-1.6,22-4.7c5.2-3.2,9-7,11.5-11.4c2.5-4.4,4-8.9,4.6-13.4c0.6-4.5,0.8-8.1,0.8-10.8V704.3z"/>
	<path d="M1121.5,746.5c2.1,3.7,4.9,6.8,8.3,9.2c3.4,2.4,7.3,4.1,11.7,5.3c4.4,1.1,9,1.7,13.7,1.7c3.4,0,7-0.4,10.7-1.2
		c3.7-0.8,7.1-2,10.2-3.7c3.1-1.7,5.6-4,7.6-6.8c2-2.8,3.1-6.4,3.1-10.7c0-7.2-4.8-12.7-14.4-16.3c-9.6-3.6-23-7.2-40.2-10.8
		c-7-1.6-13.8-3.4-20.5-5.6c-6.7-2.1-12.6-5-17.8-8.5c-5.2-3.5-9.4-7.9-12.5-13.2c-3.2-5.3-4.7-11.8-4.7-19.5
		c0-11.3,2.2-20.6,6.6-27.8c4.4-7.2,10.2-12.9,17.5-17.1c7.2-4.2,15.4-7.1,24.4-8.8c9-1.7,18.3-2.5,27.8-2.5
		c9.5,0,18.7,0.9,27.6,2.7c8.9,1.8,16.9,4.9,23.9,9.2c7,4.3,12.8,10,17.5,17.1c4.6,7.1,7.4,16.1,8.3,27h-45.8
		c-0.7-9.3-4.2-15.5-10.5-18.8c-6.3-3.3-13.8-4.9-22.4-4.9c-2.7,0-5.7,0.2-8.8,0.5c-3.2,0.3-6.1,1.1-8.6,2.2
		c-2.6,1.1-4.8,2.8-6.6,4.9c-1.8,2.2-2.7,5-2.7,8.6c0,4.3,1.6,7.8,4.7,10.5c3.2,2.7,7.3,4.9,12.4,6.6c5.1,1.7,10.9,3.2,17.5,4.6
		c6.6,1.4,13.2,2.8,20,4.4c7,1.6,13.8,3.5,20.5,5.8c6.7,2.3,12.6,5.3,17.8,9c5.2,3.7,9.4,8.4,12.5,13.9c3.2,5.5,4.7,12.4,4.7,20.5
		c0,11.5-2.3,21.2-7,29c-4.6,7.8-10.7,14.1-18.1,18.8c-7.5,4.7-16,8.1-25.6,10c-9.6,1.9-19.4,2.9-29.3,2.9c-10.2,0-20.1-1-29.8-3.1
		c-9.7-2-18.4-5.4-25.9-10.2c-7.6-4.7-13.8-11-18.6-18.8c-4.9-7.8-7.5-17.6-8-29.3h45.8C1118.3,738.3,1119.4,742.7,1121.5,746.5z"/>
	<path d="M1304.5,748c7.2,7,17.6,10.5,31.2,10.5c9.7,0,18.1-2.4,25.1-7.3c7-4.9,11.3-10,12.9-15.4h42.4c-6.8,21-17.2,36.1-31.2,45.1
		c-14,9-31,13.6-50.9,13.6c-13.8,0-26.2-2.2-37.3-6.6c-11.1-4.4-20.5-10.7-28.1-18.8c-7.7-8.1-13.6-17.9-17.8-29.2
		c-4.2-11.3-6.3-23.7-6.3-37.3c0-13.1,2.1-25.3,6.4-36.6c4.3-11.3,10.4-21.1,18.3-29.3c7.9-8.2,17.3-14.7,28.3-19.5
		c11-4.7,23.1-7.1,36.4-7.1c14.9,0,27.9,2.9,39,8.6c11.1,5.8,20.2,13.5,27.3,23.2c7.1,9.7,12.3,20.8,15.4,33.2
		c3.2,12.4,4.3,25.4,3.4,39h-126.5C1293.3,729.7,1297.2,741,1304.5,748z M1358.9,655.8c-5.8-6.3-14.5-9.5-26.3-9.5
		c-7.7,0-14.1,1.3-19.2,3.9c-5.1,2.6-9.2,5.8-12.2,9.7c-3.1,3.8-5.2,7.9-6.4,12.2c-1.2,4.3-2,8.1-2.2,11.5h78.3
		C1368.7,671.4,1364.6,662.1,1358.9,655.8z"/>
	<path d="M1486.9,737.8V790h-53.2v-52.2H1486.9z"/>
	<path d="M1552.3,614.7v23.7h0.7c6.3-9,14-16,22.9-21c8.9-5,19.2-7.5,30.7-7.5c11.1,0,21.2,2.2,30.3,6.4
		c9.2,4.3,16.1,11.9,20.9,22.7c5.2-7.7,12.3-14.5,21.2-20.3c8.9-5.9,19.5-8.8,31.7-8.8c9.3,0,17.9,1.1,25.8,3.4
		c7.9,2.3,14.7,5.9,20.3,10.8c5.6,5,10.1,11.5,13.2,19.5c3.2,8,4.7,17.7,4.7,29V790h-48.1v-99.3c0-5.9-0.2-11.4-0.7-16.6
		c-0.5-5.2-1.7-9.7-3.7-13.6c-2-3.8-5-6.9-9-9.2c-4-2.3-9.3-3.4-16.1-3.4s-12.3,1.3-16.4,3.9c-4.2,2.6-7.5,6-9.8,10.2
		c-2.4,4.2-4,8.9-4.7,14.2c-0.8,5.3-1.2,10.7-1.2,16.1V790h-48.1v-98.3c0-5.2-0.1-10.3-0.3-15.4c-0.2-5.1-1.2-9.8-2.9-14.1
		c-1.7-4.3-4.5-7.7-8.5-10.3c-4-2.6-9.8-3.9-17.5-3.9c-2.3,0-5.3,0.5-9,1.5s-7.3,2.9-10.8,5.8c-3.5,2.8-6.5,6.9-9,12.2
		c-2.5,5.3-3.7,12.3-3.7,20.9V790h-48.1V614.7H1552.3z"/>
	<path d="M1848.3,748c7.2,7,17.6,10.5,31.2,10.5c9.7,0,18.1-2.4,25.1-7.3c7-4.9,11.3-10,12.9-15.4h42.4c-6.8,21-17.2,36.1-31.2,45.1
		c-14,9-31,13.6-50.9,13.6c-13.8,0-26.2-2.2-37.3-6.6c-11.1-4.4-20.5-10.7-28.1-18.8c-7.7-8.1-13.6-17.9-17.8-29.2
		c-4.2-11.3-6.3-23.7-6.3-37.3c0-13.1,2.1-25.3,6.4-36.6c4.3-11.3,10.4-21.1,18.3-29.3c7.9-8.2,17.3-14.7,28.3-19.5
		c11-4.7,23.1-7.1,36.4-7.1c14.9,0,27.9,2.9,39,8.6c11.1,5.8,20.2,13.5,27.3,23.2c7.1,9.7,12.3,20.8,15.4,33.2
		c3.2,12.4,4.3,25.4,3.4,39h-126.5C1837.1,729.7,1841.1,741,1848.3,748z M1902.7,655.8c-5.8-6.3-14.5-9.5-26.3-9.5
		c-7.7,0-14.1,1.3-19.2,3.9c-5.1,2.6-9.2,5.8-12.2,9.7c-3.1,3.8-5.2,7.9-6.4,12.2c-1.2,4.3-2,8.1-2.2,11.5h78.3
		C1912.5,671.4,1908.5,662.1,1902.7,655.8z"/>
</g>
<text transform="matrix(1 0 0 1 43.5519 290.0339)" class="st0"><tspan x="0" y="0" class="st1 st2 st3 st4">T</tspan><tspan x="199" y="0" class="st1 st2 st3 st5">i</tspan><tspan x="279.4" y="0" class="st1 st2 st3 st6">t</tspan><tspan x="395.3" y="0" class="st1 st2 st3 st7">l</tspan><tspan x="469.2" y="0" class="st1 st2 st3 st8">e</tspan><tspan x="654.4" y="0" class="st1 st2 st3 st8">c</tspan><tspan x="839.1" y="0" class="st1 st2 st3 st9">a</tspan><tspan x="1019.2" y="0" class="st1 st2 st3 st10">s</tspan><tspan x="1191.1" y="0" class="st1 st2 st3 st11">e</tspan><tspan x="1369.7" y="0" class="st1 st2 st3 st12">.</tspan><tspan x="1443.7" y="0" class="st1 st2 st3 st11">m</tspan><tspan x="1734.9" y="0" class="st1 st2 st3 st6">e</tspan></text>
<g>
	<path d="M0,44.8V0h198.3v44.8h-72.6v197.3H72.6V44.8H0z"/>
	<path d="M214.3,39.7V0h48.1v39.7H214.3z M262.4,66.8v175.3h-48.1V66.8H262.4z"/>
	<path d="M389.6,66.8V99h-35.3v86.8c0,8.1,1.4,13.6,4.1,16.3c2.7,2.7,8.1,4.1,16.3,4.1c2.7,0,5.3-0.1,7.8-0.3c2.5-0.2,4.9-0.6,7.1-1
		v37.3c-4.1,0.7-8.6,1.1-13.6,1.4c-5,0.2-9.8,0.3-14.6,0.3c-7.5,0-14.5-0.5-21.2-1.5c-6.7-1-12.5-3-17.6-5.9
		c-5.1-2.9-9.1-7.1-12-12.5c-2.9-5.4-4.4-12.5-4.4-21.4V99H277V66.8h29.2V14.2h48.1v52.6H389.6z"/>
	<path d="M458.7,0v242.1h-48.1V0H458.7z"/>
	<path d="M534.7,200c7.2,7,17.6,10.5,31.2,10.5c9.7,0,18.1-2.4,25.1-7.3c7-4.9,11.3-10,12.9-15.4h42.4c-6.8,21-17.2,36.1-31.2,45.1
		c-14,9-31,13.6-50.9,13.6c-13.8,0-26.2-2.2-37.3-6.6c-11.1-4.4-20.5-10.7-28.1-18.8c-7.7-8.1-13.6-17.9-17.8-29.2
		c-4.2-11.3-6.3-23.7-6.3-37.3c0-13.1,2.1-25.3,6.4-36.6c4.3-11.3,10.4-21.1,18.3-29.3c7.9-8.2,17.3-14.7,28.3-19.5
		c11-4.7,23.1-7.1,36.4-7.1c14.9,0,27.9,2.9,39,8.6c11.1,5.8,20.2,13.5,27.3,23.2c7.1,9.7,12.3,20.8,15.4,33.2
		c3.2,12.4,4.3,25.4,3.4,39H522.8C523.5,181.7,527.4,193,534.7,200z M589.1,107.8c-5.8-6.3-14.5-9.5-26.3-9.5
		c-7.7,0-14.1,1.3-19.2,3.9c-5.1,2.6-9.2,5.8-12.2,9.7c-3.1,3.8-5.2,7.9-6.4,12.2c-1.2,4.3-2,8.1-2.2,11.5h78.3
		C598.9,123.4,594.9,114.1,589.1,107.8z"/>
	<path d="M752,98.3c-7.7,0-14.1,1.8-19.3,5.3c-5.2,3.5-9.4,8-12.7,13.6c-3.3,5.5-5.6,11.6-7,18.3c-1.4,6.7-2,13.3-2,19.8
		c0,6.3,0.7,12.8,2,19.3c1.4,6.6,3.6,12.5,6.6,17.8c3.1,5.3,7.2,9.7,12.4,13.1c5.2,3.4,11.5,5.1,19,5.1c11.5,0,20.4-3.2,26.6-9.7
		c6.2-6.4,10.1-15.1,11.7-25.9h46.5c-3.2,23.3-12.2,41-27.1,53.2c-14.9,12.2-34,18.3-57.3,18.3c-13.1,0-25.1-2.2-36.1-6.6
		c-11-4.4-20.3-10.6-28-18.5c-7.7-7.9-13.7-17.3-18-28.3c-4.3-11-6.4-23-6.4-36.1c0-13.6,2-26.2,5.9-37.8c4-11.6,9.8-21.7,17.5-30.2
		c7.7-8.5,17.1-15.1,28.1-19.8c11.1-4.7,23.7-7.1,38-7.1c10.4,0,20.4,1.4,30,4.1c9.6,2.7,18.2,6.8,25.8,12.4
		c7.6,5.5,13.7,12.4,18.5,20.7c4.7,8.3,7.5,18,8.1,29.3h-47.1C784.4,108.4,772.6,98.3,752,98.3z"/>
	<path d="M851,120.7c0.7-11.3,3.5-20.7,8.5-28.1c5-7.5,11.3-13.4,19-18c7.7-4.5,16.3-7.7,25.9-9.7c9.6-1.9,19.3-2.9,29-2.9
		c8.8,0,17.7,0.6,26.8,1.9c9,1.2,17.3,3.7,24.8,7.3c7.5,3.6,13.6,8.6,18.3,15.1c4.7,6.4,7.1,15,7.1,25.6v91.2
		c0,7.9,0.5,15.5,1.4,22.7c0.9,7.2,2.5,12.7,4.7,16.3h-48.8c-0.9-2.7-1.6-5.5-2.2-8.3c-0.6-2.8-1-5.7-1.2-8.6
		c-7.7,7.9-16.7,13.5-27.1,16.6c-10.4,3.2-21,4.7-31.9,4.7c-8.4,0-16.2-1-23.4-3.1c-7.2-2-13.6-5.2-19-9.5
		c-5.4-4.3-9.7-9.7-12.7-16.3c-3.1-6.6-4.6-14.4-4.6-23.4c0-9.9,1.7-18.1,5.3-24.6c3.5-6.4,8-11.6,13.6-15.4
		c5.5-3.8,11.9-6.7,19-8.6c7.1-1.9,14.3-3.4,21.5-4.6c7.2-1.1,14.4-2,21.4-2.7c7-0.7,13.2-1.7,18.6-3.1s9.7-3.3,12.9-5.9
		c3.2-2.6,4.6-6.4,4.4-11.4c0-5.2-0.8-9.3-2.5-12.4c-1.7-3.1-4-5.4-6.8-7.1c-2.8-1.7-6.1-2.8-9.8-3.4c-3.7-0.6-7.7-0.8-12-0.8
		c-9.5,0-17,2-22.4,6.1s-8.6,10.8-9.5,20.3H851z M962.2,156.3c-2,1.8-4.6,3.2-7.6,4.2c-3.1,1-6.3,1.9-9.8,2.5
		c-3.5,0.7-7.2,1.2-11,1.7c-3.8,0.5-7.7,1-11.5,1.7c-3.6,0.7-7.2,1.6-10.7,2.7c-3.5,1.1-6.6,2.7-9.2,4.6c-2.6,1.9-4.7,4.4-6.3,7.3
		c-1.6,2.9-2.4,6.7-2.4,11.2c0,4.3,0.8,7.9,2.4,10.8c1.6,2.9,3.7,5.3,6.4,7c2.7,1.7,5.9,2.9,9.5,3.6c3.6,0.7,7.3,1,11.2,1
		c9.5,0,16.8-1.6,22-4.7c5.2-3.2,9-7,11.5-11.4c2.5-4.4,4-8.9,4.6-13.4c0.6-4.5,0.8-8.1,0.8-10.8V156.3z"/>
	<path d="M1073.6,198.5c2.1,3.7,4.9,6.8,8.3,9.2c3.4,2.4,7.3,4.1,11.7,5.3c4.4,1.1,9,1.7,13.7,1.7c3.4,0,7-0.4,10.7-1.2
		c3.7-0.8,7.1-2,10.2-3.7c3.1-1.7,5.6-4,7.6-6.8c2-2.8,3.1-6.4,3.1-10.7c0-7.2-4.8-12.7-14.4-16.3c-9.6-3.6-23-7.2-40.2-10.8
		c-7-1.6-13.8-3.4-20.5-5.6c-6.7-2.1-12.6-5-17.8-8.5c-5.2-3.5-9.4-7.9-12.5-13.2c-3.2-5.3-4.7-11.8-4.7-19.5
		c0-11.3,2.2-20.6,6.6-27.8c4.4-7.2,10.2-12.9,17.5-17.1c7.2-4.2,15.4-7.1,24.4-8.8c9-1.7,18.3-2.5,27.8-2.5
		c9.5,0,18.7,0.9,27.6,2.7c8.9,1.8,16.9,4.9,23.9,9.2c7,4.3,12.8,10,17.5,17.1c4.6,7.1,7.4,16.1,8.3,27h-45.8
		c-0.7-9.3-4.2-15.5-10.5-18.8c-6.3-3.3-13.8-4.9-22.4-4.9c-2.7,0-5.7,0.2-8.8,0.5c-3.2,0.3-6.1,1.1-8.6,2.2
		c-2.6,1.1-4.8,2.8-6.6,4.9c-1.8,2.2-2.7,5-2.7,8.6c0,4.3,1.6,7.8,4.7,10.5c3.2,2.7,7.3,4.9,12.4,6.6c5.1,1.7,10.9,3.2,17.5,4.6
		c6.6,1.4,13.2,2.8,20,4.4c7,1.6,13.8,3.5,20.5,5.8c6.7,2.3,12.6,5.3,17.8,9c5.2,3.7,9.4,8.4,12.5,13.9c3.2,5.5,4.7,12.4,4.7,20.5
		c0,11.5-2.3,21.2-7,29c-4.6,7.8-10.7,14.1-18.1,18.8c-7.5,4.7-16,8.1-25.6,10c-9.6,1.9-19.4,2.9-29.3,2.9c-10.2,0-20.1-1-29.8-3.1
		c-9.7-2-18.4-5.4-25.9-10.2c-7.6-4.7-13.8-11-18.6-18.8c-4.9-7.8-7.5-17.6-8-29.3h45.8C1070.4,190.3,1071.4,194.8,1073.6,198.5z"/>
	<path d="M1256.5,200c7.2,7,17.6,10.5,31.2,10.5c9.7,0,18.1-2.4,25.1-7.3c7-4.9,11.3-10,12.9-15.4h42.4c-6.8,21-17.2,36.1-31.2,45.1
		c-14,9-31,13.6-50.9,13.6c-13.8,0-26.2-2.2-37.3-6.6c-11.1-4.4-20.5-10.7-28.1-18.8c-7.7-8.1-13.6-17.9-17.8-29.2
		c-4.2-11.3-6.3-23.7-6.3-37.3c0-13.1,2.1-25.3,6.4-36.6c4.3-11.3,10.4-21.1,18.3-29.3c7.9-8.2,17.3-14.7,28.3-19.5
		c11-4.7,23.1-7.1,36.4-7.1c14.9,0,27.9,2.9,39,8.6c11.1,5.8,20.2,13.5,27.3,23.2c7.1,9.7,12.3,20.8,15.4,33.2
		c3.2,12.4,4.3,25.4,3.4,39h-126.5C1245.3,181.7,1249.3,193,1256.5,200z M1310.9,107.8c-5.8-6.3-14.5-9.5-26.3-9.5
		c-7.7,0-14.1,1.3-19.2,3.9c-5.1,2.6-9.2,5.8-12.2,9.7c-3.1,3.8-5.2,7.9-6.4,12.2c-1.2,4.3-2,8.1-2.2,11.5h78.3
		C1320.7,123.4,1316.7,114.1,1310.9,107.8z"/>
	<path d="M1438.9,189.9v52.2h-53.2v-52.2H1438.9z"/>
	<path d="M1504.3,66.8v23.7h0.7c6.3-9,14-16,22.9-21c8.9-5,19.2-7.5,30.7-7.5c11.1,0,21.2,2.2,30.3,6.4c9.2,4.3,16.1,11.9,20.9,22.7
		c5.2-7.7,12.3-14.5,21.2-20.3c8.9-5.9,19.5-8.8,31.7-8.8c9.3,0,17.9,1.1,25.8,3.4c7.9,2.3,14.7,5.9,20.3,10.8
		c5.6,5,10.1,11.5,13.2,19.5c3.2,8,4.7,17.7,4.7,29v117.3h-48.1v-99.3c0-5.9-0.2-11.4-0.7-16.6c-0.5-5.2-1.7-9.7-3.7-13.6
		c-2-3.8-5-6.9-9-9.2c-4-2.3-9.3-3.4-16.1-3.4s-12.3,1.3-16.4,3.9c-4.2,2.6-7.5,6-9.8,10.2c-2.4,4.2-4,8.9-4.7,14.2
		c-0.8,5.3-1.2,10.7-1.2,16.1v97.6h-48.1v-98.3c0-5.2-0.1-10.3-0.3-15.4c-0.2-5.1-1.2-9.8-2.9-14.1c-1.7-4.3-4.5-7.7-8.5-10.3
		c-4-2.6-9.8-3.9-17.5-3.9c-2.3,0-5.3,0.5-9,1.5s-7.3,2.9-10.8,5.8c-3.5,2.8-6.5,6.9-9,12.2c-2.5,5.3-3.7,12.3-3.7,20.9v101.7h-48.1
		V66.8H1504.3z"/>
	<path d="M1800.3,200c7.2,7,17.6,10.5,31.2,10.5c9.7,0,18.1-2.4,25.1-7.3c7-4.9,11.3-10,12.9-15.4h42.4c-6.8,21-17.2,36.1-31.2,45.1
		c-14,9-31,13.6-50.9,13.6c-13.8,0-26.2-2.2-37.3-6.6c-11.1-4.4-20.5-10.7-28.1-18.8c-7.7-8.1-13.6-17.9-17.8-29.2
		c-4.2-11.3-6.3-23.7-6.3-37.3c0-13.1,2.1-25.3,6.4-36.6c4.3-11.3,10.4-21.1,18.3-29.3c7.9-8.2,17.3-14.7,28.3-19.5
		c11-4.7,23.1-7.1,36.4-7.1c14.9,0,27.9,2.9,39,8.6c11.1,5.8,20.2,13.5,27.3,23.2c7.1,9.7,12.3,20.8,15.4,33.2
		c3.2,12.4,4.3,25.4,3.4,39h-126.5C1789.1,181.7,1793.1,193,1800.3,200z M1854.8,107.8c-5.8-6.3-14.5-9.5-26.3-9.5
		c-7.7,0-14.1,1.3-19.2,3.9c-5.1,2.6-9.2,5.8-12.2,9.7c-3.1,3.8-5.2,7.9-6.4,12.2c-1.2,4.3-2,8.1-2.2,11.5h78.3
		C1864.5,123.4,1860.5,114.1,1854.8,107.8z"/>
</g>
</svg>
