<?xml version="1.0" encoding="utf-8"?>
<!-- Generator: Adobe Illustrator 25.2.2, SVG Export Plug-In . SVG Version: 6.00 Build 0)  -->
<svg version="1.1" id="Layer_1" xmlns="http://www.w3.org/2000/svg" xmlns:xlink="http://www.w3.org/1999/xlink" x="0px" y="0px"
	 viewBox="0 0 512 512" style="enable-background:new 0 0 512 512;" xml:space="preserve">
<g>
	<path d="M187.9,114.5l90.5,242h-55.2l-18.3-53.9h-90.5l-19,53.9H41.5l91.8-242H187.9z M159.7,174.1l-31.5,88.8h62.7l-30.5-88.8
		L159.7,174.1L159.7,174.1z"/>
	<path d="M375,176.5c51.1,0.2,76.6,16.8,76.6,49.8v92.9c0,17.2,2,29.6,6.1,37.3h-48.8c-1.8-5.4-2.9-11.1-3.4-16.9
		c-14.2,14.5-33.9,21.7-59,21.7c-18.3,0-32.8-4.6-43.6-13.9c-10.7-9.3-16.1-22.1-16.1-38.6c0-16,5.1-28.5,15.3-37.3
		c10.4-9.3,29.3-15.1,56.6-17.6c19.4-2,31.7-4.6,36.9-7.6c5.2-3.1,7.8-7.7,7.8-14.1c0-7.9-2.4-13.8-7.1-17.6s-12.7-5.8-23.7-5.8
		c-10.2,0-17.9,2.1-23,6.3c-5.2,4.2-8.2,10.9-9.2,20.2h-48.1c1.1-19.2,9-33.8,23.7-43.7C330.7,181.5,350.3,176.5,375,176.5z
		 M335,306.6c0,14.9,9.8,22.4,29.5,22.4c25.8-0.2,38.7-13.4,39-39.7v-18.6c-3.8,3.8-13.6,6.7-29.1,8.5c-13.6,1.6-23.5,4.4-29.8,8.3
		C338.1,291.4,335,297.8,335,306.6z"/>
</g>
</svg>
