<?xml version="1.0" encoding="utf-8"?>
<!-- Generator: Adobe Illustrator 26.0.3, SVG Export Plug-In . SVG Version: 6.00 Build 0)  -->
<svg version="1.1" id="Layer_1" xmlns="http://www.w3.org/2000/svg" xmlns:xlink="http://www.w3.org/1999/xlink" x="0px" y="0px"
	 width="1200px" height="630px" viewBox="0 0 1200 630" style="enable-background:new 0 0 1200 630;" xml:space="preserve">
<path d="M285,289.2v-14.7h65.2v14.7h-23.9v64.9h-17.5v-64.9H285z"/>
<path d="M355.5,287.5v-13h15.8v13H355.5z M371.3,296.4v57.7h-15.8v-57.7H371.3z"/>
<path d="M413.1,296.4V307h-11.6v28.6c0,2.7,0.4,4.5,1.3,5.4s2.7,1.3,5.4,1.3c0.9,0,1.7,0,2.6-0.1c0.8-0.1,1.6-0.2,2.3-0.3v12.3
	c-1.5,0.2-3,0.4-4.5,0.4c-1.6,0.1-3.2,0.1-4.8,0.1c-2.3,0-4.7-0.2-7-0.5c-2-0.3-4-0.9-5.8-2c-1.7-1-3-2.4-3.9-4.1
	c-1-1.8-1.5-4.1-1.5-7v-34h-9.6v-10.6h9.6v-17.3h15.8v17.3H413.1z"/>
<path d="M435.9,274.5v79.6h-15.8v-79.6H435.9z"/>
<path d="M460.9,340.2c2.4,2.3,5.8,3.5,10.3,3.5c3.2,0,5.9-0.8,8.3-2.4s3.7-3.3,4.2-5.1h13.9c-2.2,6.9-5.7,11.9-10.3,14.8
	c-4.6,3-10.2,4.5-16.7,4.5c-4.5,0-8.6-0.7-12.3-2.2c-3.5-1.4-6.7-3.5-9.3-6.2c-2.6-2.8-4.6-6-5.9-9.6c-1.4-3.9-2.1-8.1-2.1-12.3
	c0-4.1,0.7-8.2,2.1-12c2.7-7.2,8.2-13.1,15.3-16.1c3.8-1.6,7.9-2.4,12-2.3c4.9,0,9.2,0.9,12.8,2.8c3.5,1.8,6.6,4.4,9,7.6
	c2.4,3.3,4.1,7,5.1,10.9c1.1,4.2,1.4,8.5,1.1,12.8H457C457.2,334.2,458.5,337.9,460.9,340.2z M478.8,309.9c-1.9-2.1-4.8-3.1-8.6-3.1
	c-2.5,0-4.6,0.4-6.3,1.3c-1.6,0.8-2.9,1.8-4,3.2c-1,1.2-1.7,2.5-2.1,4c-0.4,1.2-0.6,2.5-0.7,3.8h25.8C482,315,480.7,312,478.8,309.9
	L478.8,309.9z"/>
<path d="M532.4,306.8c-2.5,0-4.6,0.6-6.4,1.7c-1.7,1.2-3.1,2.7-4.2,4.5c-1.1,1.9-1.9,3.9-2.3,6c-0.4,2.1-0.7,4.3-0.7,6.5
	c0,2.1,0.2,4.3,0.7,6.4c0.4,2.1,1.1,4,2.2,5.9c1,1.7,2.4,3.2,4.1,4.3c1.7,1.1,3.8,1.7,6.2,1.7c3.8,0,6.7-1.1,8.8-3.2
	c2-2.1,3.3-5,3.8-8.5h15.3c-1,7.7-4,13.5-8.9,17.5s-11.2,6-18.8,6c-4.1,0-8.1-0.7-11.9-2.2c-3.5-1.4-6.6-3.4-9.2-6.1
	c-2.6-2.7-4.6-5.8-5.9-9.3c-1.4-3.8-2.2-7.8-2.1-11.9c0-4.2,0.6-8.4,2-12.4c1.2-3.7,3.2-7.1,5.7-9.9c2.6-2.8,5.7-5,9.3-6.5
	c3.6-1.6,7.8-2.3,12.5-2.3c3.3,0,6.7,0.4,9.9,1.3c3,0.8,5.9,2.2,8.5,4.1c2.5,1.8,4.5,4.1,6.1,6.8c1.6,2.7,2.5,5.9,2.7,9.6h-15.5
	C543,310.1,539.1,306.8,532.4,306.8z"/>
<path d="M564.9,314.2c0.2-3.7,1.1-6.8,2.8-9.3c1.6-2.4,3.7-4.5,6.2-5.9c2.6-1.5,5.5-2.6,8.5-3.2c3.1-0.6,6.3-0.9,9.5-0.9
	c2.9,0,5.9,0.2,8.8,0.6c2.8,0.4,5.6,1.2,8.1,2.4c2.4,1.1,4.5,2.8,6,5c1.6,2.1,2.3,4.9,2.3,8.4v30c0,2.5,0.1,5,0.4,7.5
	c0.3,2.4,0.8,4.2,1.6,5.4h-16.1c-0.3-0.9-0.5-1.8-0.7-2.7c-0.2-0.9-0.3-1.9-0.4-2.8c-2.5,2.6-5.5,4.4-8.9,5.5
	c-3.4,1-6.9,1.6-10.5,1.6c-2.6,0-5.2-0.3-7.7-1c-2.3-0.6-4.4-1.7-6.2-3.1c-1.8-1.4-3.2-3.3-4.2-5.4c-1-2.2-1.5-4.7-1.5-7.7
	c0-3.3,0.6-6,1.7-8.1c1.1-2,2.6-3.8,4.5-5.1c1.9-1.3,4-2.3,6.2-2.8c2.3-0.6,4.7-1.1,7.1-1.5c2.4-0.4,4.7-0.7,7-0.9
	c2.1-0.2,4.1-0.5,6.1-1c1.8-0.4,3.2-1.1,4.2-2s1.5-2.1,1.4-3.7c0-1.7-0.3-3.1-0.8-4.1c-0.5-1-1.3-1.8-2.2-2.3c-1-0.6-2.1-1-3.2-1.1
	c-1.3-0.2-2.6-0.3-3.9-0.3c-3.1,0-5.6,0.7-7.4,2s-2.8,3.6-3.1,6.7L564.9,314.2z M601.5,325.9c-0.7,0.6-1.6,1.1-2.5,1.4
	c-1.1,0.4-2.1,0.6-3.2,0.8c-1.2,0.2-2.4,0.4-3.6,0.6s-2.5,0.3-3.8,0.6c-1.2,0.2-2.4,0.5-3.5,0.9c-1.1,0.3-2.1,0.8-3,1.5
	c-0.9,0.6-1.6,1.5-2.1,2.4c-0.6,1.1-0.8,2.4-0.8,3.7c0,1.2,0.2,2.5,0.8,3.6c0.5,0.9,1.2,1.7,2.1,2.3c1,0.6,2,1,3.1,1.2
	c1.2,0.2,2.4,0.3,3.7,0.3c3.1,0,5.5-0.5,7.2-1.6c1.6-0.9,2.9-2.2,3.8-3.7c0.8-1.4,1.3-2.9,1.5-4.4c0.2-1.2,0.3-2.4,0.3-3.6
	L601.5,325.9z"/>
<path d="M638.1,339.7c0.7,1.2,1.6,2.2,2.7,3c1.2,0.8,2.5,1.4,3.8,1.7c1.5,0.4,3,0.6,4.5,0.6c1.2,0,2.4-0.1,3.5-0.4
	c1.2-0.2,2.3-0.7,3.3-1.2c1-0.5,1.8-1.3,2.5-2.2c0.7-1,1-2.3,1-3.5c0-2.4-1.6-4.2-4.7-5.4c-3.2-1.2-7.6-2.4-13.2-3.6
	c-2.3-0.5-4.6-1.1-6.7-1.8c-2.1-0.6-4-1.6-5.9-2.8c-1.7-1.1-3.1-2.6-4.1-4.4c-1-1.7-1.6-3.9-1.6-6.4c0-3.7,0.7-6.8,2.2-9.1
	c1.4-2.3,3.4-4.3,5.7-5.6c2.5-1.4,5.2-2.4,8-2.9c3-0.6,6.1-0.8,9.1-0.8c3.1,0,6.1,0.3,9.1,0.9c2.8,0.5,5.4,1.6,7.9,3
	c2.3,1.4,4.3,3.3,5.8,5.6c1.5,2.3,2.4,5.3,2.7,8.9h-15.1c-0.2-3-1.4-5.1-3.5-6.2c-2.1-1.1-4.5-1.6-7.4-1.6c-1,0-1.9,0.1-2.9,0.2
	c-1,0.1-1.9,0.3-2.8,0.7c-0.8,0.4-1.6,0.9-2.2,1.6c-0.6,0.8-0.9,1.8-0.9,2.8c0,1.3,0.5,2.6,1.6,3.5c1.2,1,2.6,1.7,4.1,2.2
	c1.9,0.6,3.8,1.1,5.7,1.5c2.2,0.4,4.3,0.9,6.6,1.5c2.3,0.5,4.5,1.1,6.7,1.9c2.1,0.7,4.1,1.7,5.9,3c1.7,1.2,3.1,2.8,4.1,4.6
	c1,1.8,1.6,4.1,1.6,6.7c0,3.8-0.8,7-2.3,9.5c-1.5,2.5-3.5,4.6-6,6.2c-2.6,1.6-5.4,2.7-8.4,3.3c-3.2,0.6-6.4,1-9.6,0.9
	c-3.3,0-6.6-0.3-9.8-1c-3-0.6-5.9-1.7-8.5-3.3c-2.5-1.6-4.6-3.7-6.1-6.2c-1.6-2.6-2.5-5.8-2.6-9.6h15.1
	C637,336.9,637.4,338.4,638.1,339.7z"/>
<path d="M698.3,340.2c2.4,2.3,5.8,3.5,10.3,3.5c3.2,0,5.9-0.8,8.3-2.4s3.7-3.3,4.2-5.1H735c-2.2,6.9-5.7,11.9-10.3,14.8
	c-4.6,3-10.2,4.5-16.7,4.5c-4.5,0-8.6-0.7-12.3-2.2c-3.5-1.4-6.7-3.5-9.3-6.2c-2.6-2.8-4.6-6-5.9-9.6c-1.4-3.9-2.1-8.1-2.1-12.3
	c0-4.1,0.7-8.2,2.1-12c2.7-7.2,8.2-13.1,15.3-16.1c3.8-1.6,7.9-2.4,12-2.3c4.9,0,9.2,0.9,12.8,2.8c3.5,1.8,6.6,4.4,9,7.6
	c2.4,3.3,4.1,7,5.1,10.9c1,4.2,1.4,8.5,1.1,12.8h-41.6C694.6,334.2,695.9,337.9,698.3,340.2z M716.2,309.9c-1.9-2.1-4.8-3.1-8.6-3.1
	c-2.5,0-4.6,0.4-6.3,1.3c-1.6,0.8-2.9,1.8-4,3.2c-1,1.2-1.7,2.5-2.1,4c-0.4,1.2-0.6,2.5-0.7,3.8h25.8
	C719.4,315,718.1,312,716.2,309.9L716.2,309.9z"/>
<path d="M758.3,336.9v17.2h-17.5v-17.2H758.3z"/>
<path d="M779.8,296.4v7.8h0.2c1.9-2.8,4.5-5.2,7.5-6.9c2.9-1.6,6.3-2.5,10.1-2.5c3.4,0,6.9,0.7,10,2.1c3,1.4,5.3,3.9,6.9,7.5
	c1.9-2.7,4.2-5,7-6.7c2.9-1.9,6.4-2.9,10.4-2.9c2.9,0,5.7,0.4,8.5,1.1c2.5,0.7,4.8,1.9,6.7,3.6c1.9,1.8,3.4,4,4.3,6.4
	c1,2.6,1.6,5.8,1.6,9.5v38.6h-15.8v-32.7c0-1.9-0.1-3.8-0.2-5.5c-0.1-1.6-0.5-3.1-1.2-4.5c-0.7-1.3-1.7-2.3-3-3
	c-1.3-0.7-3.1-1.1-5.3-1.1s-4,0.4-5.4,1.3c-1.3,0.8-2.5,2-3.2,3.3c-0.8,1.5-1.3,3-1.6,4.7c-0.3,1.8-0.4,3.5-0.4,5.3v32.1H801v-32.3
	c0-1.7,0-3.4-0.1-5.1c-0.1-1.6-0.4-3.1-1-4.6c-0.5-1.4-1.5-2.6-2.8-3.4c-1.3-0.9-3.2-1.3-5.7-1.3c-1,0-2,0.2-3,0.5
	c-1.3,0.4-2.5,1-3.6,1.9c-1.3,1.1-2.3,2.5-3,4c-0.8,1.8-1.2,4-1.2,6.9v33.5h-15.8v-57.7H779.8z"/>
<path d="M877.2,340.2c2.4,2.3,5.8,3.5,10.3,3.5c3.2,0,5.9-0.8,8.3-2.4c2.3-1.6,3.7-3.3,4.2-5.1h13.9c-2.2,6.9-5.7,11.9-10.3,14.8
	c-4.6,3-10.2,4.5-16.7,4.5c-4.5,0-8.6-0.7-12.3-2.2c-3.5-1.4-6.7-3.5-9.3-6.2c-2.6-2.8-4.6-6-5.9-9.6c-1.4-3.9-2.1-8.1-2.1-12.3
	c0-4.1,0.7-8.2,2.1-12c2.7-7.2,8.2-13.1,15.3-16.1c3.8-1.6,7.9-2.4,12-2.3c4.9,0,9.2,0.9,12.8,2.8c3.5,1.8,6.6,4.4,9,7.6
	c2.4,3.3,4.1,7,5.1,10.9c1,4.2,1.4,8.5,1.1,12.8h-41.6C873.5,334.2,874.8,337.9,877.2,340.2z M895.1,309.9c-1.9-2.1-4.8-3.1-8.6-3.1
	c-2.5,0-4.6,0.4-6.3,1.3c-1.6,0.8-2.9,1.8-4,3.2c-1,1.2-1.7,2.5-2.1,4c-0.4,1.2-0.6,2.5-0.7,3.8h25.8C898.3,315,897,312,895.1,309.9
	L895.1,309.9z"/>
</svg>
