<?xml version="1.0" standalone="no"?>
<!DOCTYPE svg PUBLIC "-//W3C//DTD SVG 20010904//EN"
 "http://www.w3.org/TR/2001/REC-SVG-20010904/DTD/svg10.dtd">
<svg version="1.0" xmlns="http://www.w3.org/2000/svg"
 width="700.000000pt" height="700.000000pt" viewBox="0 0 700.000000 700.000000"
 preserveAspectRatio="xMidYMid meet">
<metadata>
Created by potrace 1.11, written by Peter Selinger 2001-2013
</metadata>
<g transform="translate(0.000000,700.000000) scale(0.100000,-0.100000)"
fill="#000000" stroke="none">
<path d="M1745 5230 c-42 -113 -83 -218 -90 -235 -7 -16 -24 -61 -38 -100 -14
-38 -74 -196 -133 -350 -58 -154 -119 -314 -134 -355 -16 -41 -67 -178 -116
-305 -48 -126 -115 -304 -149 -395 -101 -268 -175 -461 -200 -525 -13 -33 -64
-170 -115 -305 -50 -135 -95 -254 -101 -265 -8 -18 -99 -263 -99 -268 0 -2
706 0 726 2 6 1 15 16 21 34 6 17 25 73 43 122 50 140 127 359 167 475 l36
105 614 -1 c363 0 617 -4 622 -10 8 -7 119 -330 232 -669 l20 -60 372 1 372 0
-2 22 c-2 18 -321 882 -377 1022 -8 19 -26 69 -41 110 -15 41 -31 84 -36 95
-5 11 -22 58 -39 105 -17 47 -34 94 -39 105 -5 11 -14 36 -21 55 -7 19 -16 44
-21 55 -10 25 -370 988 -518 1390 -61 165 -117 311 -124 325 l-13 25 -371 0
-370 0 -78 -205z m475 -690 c12 -36 63 -182 112 -325 49 -143 94 -271 98 -285
4 -14 46 -136 93 -272 53 -154 81 -248 74 -249 -37 -3 -824 -4 -833 -1 -8 2
-4 23 12 65 13 34 73 204 134 377 62 173 139 392 172 485 33 94 69 196 81 228
11 32 23 54 27 50 4 -4 18 -37 30 -73z"/>
<path d="M4978 4584 c-2 -1 -34 -5 -73 -9 -297 -28 -542 -132 -707 -297 -104
-106 -180 -272 -194 -429 l-6 -66 327 1 328 1 13 63 c41 200 166 290 413 296
161 4 305 -36 362 -102 94 -107 98 -296 7 -378 -50 -46 -166 -83 -333 -108
-70 -10 -141 -20 -155 -21 -246 -19 -521 -77 -656 -140 -214 -98 -338 -258
-372 -475 -13 -90 -8 -245 13 -350 14 -70 92 -213 148 -272 83 -87 247 -182
347 -202 14 -2 48 -10 75 -16 65 -16 322 -22 405 -9 112 16 123 18 200 39 105
29 243 98 330 166 41 31 77 61 78 66 9 22 20 3 25 -46 3 -29 13 -80 22 -112
l16 -59 330 0 c289 0 329 2 325 15 -20 61 -48 177 -57 235 -8 45 -12 350 -14
855 l-3 785 -24 82 c-32 106 -78 182 -156 253 -96 89 -236 155 -412 194 -62
13 -92 18 -205 32 -48 6 -392 13 -397 8z m536 -1476 c-1 -101 -5 -192 -8 -203
-38 -142 -68 -205 -130 -267 -47 -46 -102 -80 -171 -103 -71 -23 -125 -30
-245 -29 -180 2 -289 51 -345 154 -27 50 -30 63 -30 150 0 107 18 159 76 218
53 54 219 122 334 137 11 1 40 6 65 9 56 9 83 13 140 21 87 12 215 46 260 70
25 13 48 24 51 24 3 1 5 -81 3 -181z"/>
</g>
</svg>
