<svg id="Layer_1" data-name="Layer 1" xmlns="http://www.w3.org/2000/svg" viewBox="0 0 1915.23 246.49"><path d="M0,44.75V0H198.35V44.75H125.79V242.08H72.56V44.75Z"/><path d="M214.28,39.67V0h48.14V39.67Zm48.14,27.12V242.08H214.28V66.79Z"/><path d="M389.57,66.79V99H354.31v86.8q0,12.21,4.06,16.28t16.28,4.06q4.07,0,7.8-.34a67,67,0,0,0,7.12-1v37.29A115.19,115.19,0,0,1,376,243.44q-7.46.33-14.57.34a140.3,140.3,0,0,1-21.2-1.53,49.81,49.81,0,0,1-17.63-5.93,31.37,31.37,0,0,1-12-12.55q-4.41-8.13-4.41-21.36V99H277V66.79h29.16V14.24h48.15V66.79Z"/><path d="M458.73,0V242.08H410.58V0Z"/><path d="M534.68,200q10.85,10.52,31.19,10.51,14.57,0,25.09-7.29t12.88-15.43h42.38q-10.17,31.54-31.19,45.1t-50.86,13.56q-20.68,0-37.29-6.61a77.46,77.46,0,0,1-28.14-18.82,84.55,84.55,0,0,1-17.8-29.16,106.51,106.51,0,0,1-6.28-37.29A102.34,102.34,0,0,1,481.1,118a84.69,84.69,0,0,1,46.63-48.82,90.67,90.67,0,0,1,36.44-7.12q22.38,0,39,8.64a77.87,77.87,0,0,1,27.3,23.23,95.42,95.42,0,0,1,15.42,33.22,123.48,123.48,0,0,1,3.39,39H522.81Q523.83,189.52,534.68,200Zm54.41-92.22q-8.64-9.5-26.27-9.49-11.54,0-19.16,3.89a36.71,36.71,0,0,0-12.21,9.67,35.35,35.35,0,0,0-6.44,12.2,55.13,55.13,0,0,0-2.2,11.53h78.32Q597.74,117.32,589.09,107.82Z"/><path d="M752,98.33q-11.52,0-19.32,5.25A41.93,41.93,0,0,0,720,117.14a59,59,0,0,0-7,18.31,99.79,99.79,0,0,0-2,19.84,95.56,95.56,0,0,0,2,19.32,59.86,59.86,0,0,0,6.61,17.8A38,38,0,0,0,732,205.47q7.8,5.09,19,5.08,17.29,0,26.61-9.66T789.3,175h46.45q-4.75,34.92-27.12,53.23t-57.3,18.31a95.85,95.85,0,0,1-36.11-6.61,79.86,79.86,0,0,1-28-18.48,83.92,83.92,0,0,1-18-28.31A98.06,98.06,0,0,1,662.83,157a116.64,116.64,0,0,1,5.94-37.8A85,85,0,0,1,686.23,89a79.68,79.68,0,0,1,28.14-19.83q16.61-7.12,38-7.12a109.64,109.64,0,0,1,30,4.07,80.14,80.14,0,0,1,25.77,12.37A66.33,66.33,0,0,1,826.6,99.17q7.11,12.39,8.13,29.33H787.6Q782.86,98.32,752,98.33Z"/><path d="M851,120.7q1-17,8.48-28.14a57.74,57.74,0,0,1,19-18,82.6,82.6,0,0,1,25.93-9.66,147.59,147.59,0,0,1,29-2.88,197,197,0,0,1,26.79,1.86,82.33,82.33,0,0,1,24.75,7.29,48.85,48.85,0,0,1,18.31,15.09q7.11,9.66,7.12,25.6v91.2a183.92,183.92,0,0,0,1.35,22.72q1.35,10.84,4.75,16.27H967.64a66.7,66.7,0,0,1-2.21-8.3,72.29,72.29,0,0,1-1.18-8.65,62.73,62.73,0,0,1-27.13,16.61,108.69,108.69,0,0,1-31.87,4.75,86.24,86.24,0,0,1-23.39-3.05,53.58,53.58,0,0,1-19-9.49,44.24,44.24,0,0,1-12.71-16.28q-4.59-9.82-4.58-23.39,0-14.92,5.25-24.58a43.82,43.82,0,0,1,13.57-15.43,60.91,60.91,0,0,1,19-8.65A208.26,208.26,0,0,1,904.91,141q10.85-1.68,21.36-2.71a126.72,126.72,0,0,0,18.65-3.05q8.15-2,12.89-5.93t4.4-11.36q0-7.8-2.54-12.38a18.82,18.82,0,0,0-6.78-7.12,26.87,26.87,0,0,0-9.83-3.39,81.28,81.28,0,0,0-12-.84q-14.24,0-22.38,6.1t-9.49,20.34Zm111.21,35.6a21.51,21.51,0,0,1-7.63,4.24,76.15,76.15,0,0,1-9.83,2.54q-5.26,1-11,1.7t-11.53,1.69a88,88,0,0,0-10.68,2.72,31.87,31.87,0,0,0-9.15,4.57,21.89,21.89,0,0,0-6.27,7.29,23.37,23.37,0,0,0-2.38,11.19,22.52,22.52,0,0,0,2.38,10.85,18.14,18.14,0,0,0,6.44,6.95A27.07,27.07,0,0,0,912,213.6a60.49,60.49,0,0,0,11.19,1q14.25,0,22-4.75a31.73,31.73,0,0,0,11.53-11.36,36.22,36.22,0,0,0,4.57-13.39,90.92,90.92,0,0,0,.85-10.85Z"/><path d="M1073.59,198.51a28,28,0,0,0,8.3,9.16,35.46,35.46,0,0,0,11.7,5.25,54.66,54.66,0,0,0,13.73,1.7,50.92,50.92,0,0,0,10.68-1.19,36.3,36.3,0,0,0,10.18-3.73,23,23,0,0,0,7.62-6.78,17.75,17.75,0,0,0,3-10.68q0-10.85-14.4-16.27t-40.18-10.85q-10.51-2.37-20.51-5.6a70,70,0,0,1-17.81-8.47,41,41,0,0,1-12.54-13.23q-4.76-7.95-4.75-19.49,0-17,6.61-27.8a48.76,48.76,0,0,1,17.47-17.13,76.35,76.35,0,0,1,24.41-8.81,150.13,150.13,0,0,1,27.8-2.54,138.76,138.76,0,0,1,27.63,2.71,73.28,73.28,0,0,1,23.91,9.15A55.09,55.09,0,0,1,1174,91q6.94,10.68,8.3,26.95h-45.77q-1-13.9-10.51-18.82t-22.38-4.91a85.31,85.31,0,0,0-8.81.5,29.45,29.45,0,0,0-8.65,2.21,17.87,17.87,0,0,0-6.61,4.91,13,13,0,0,0-2.71,8.65,13.18,13.18,0,0,0,4.75,10.51,36.53,36.53,0,0,0,12.37,6.61,154.4,154.4,0,0,0,17.46,4.58q9.83,2,20,4.41a203.5,203.5,0,0,1,20.51,5.76,67.61,67.61,0,0,1,17.8,9,43.35,43.35,0,0,1,12.54,13.9q4.76,8.31,4.75,20.51,0,17.3-7,29a55.69,55.69,0,0,1-18.14,18.82,74.45,74.45,0,0,1-25.6,10,149.29,149.29,0,0,1-29.33,2.88,145.43,145.43,0,0,1-29.83-3.05,78.79,78.79,0,0,1-25.94-10.17,58.13,58.13,0,0,1-18.65-18.82q-7.29-11.7-8-29.33h45.78A26.34,26.34,0,0,0,1073.59,198.51Z"/><path d="M1256.5,200q10.85,10.52,31.19,10.51,14.58,0,25.09-7.29t12.89-15.43h42.38q-10.17,31.54-31.19,45.1T1286,246.49q-20.68,0-37.3-6.61a77.55,77.55,0,0,1-28.14-18.82,84.55,84.55,0,0,1-17.8-29.16,106.74,106.74,0,0,1-6.27-37.29,102.34,102.34,0,0,1,6.44-36.62,84.72,84.72,0,0,1,46.62-48.82A90.72,90.72,0,0,1,1286,62.05q22.38,0,39,8.64a77.93,77.93,0,0,1,27.29,23.23,95.61,95.61,0,0,1,15.43,33.22,124.06,124.06,0,0,1,3.39,39H1244.63Q1245.65,189.52,1256.5,200Zm54.42-92.22q-8.64-9.5-26.28-9.49-11.52,0-19.15,3.89a36.61,36.61,0,0,0-12.21,9.67,35.35,35.35,0,0,0-6.44,12.2,55.21,55.21,0,0,0-2.21,11.53H1323Q1319.56,117.32,1310.92,107.82Z"/><path d="M1438.91,189.87v52.21h-53.23V189.87Z"/><path d="M1504.35,66.79V90.53h.67a68.55,68.55,0,0,1,22.89-21q13.39-7.45,30.68-7.46a70.65,70.65,0,0,1,30.35,6.44q13.72,6.45,20.85,22.72A74.61,74.61,0,0,1,1631,70.86q13.39-8.81,31.7-8.81a93.5,93.5,0,0,1,25.77,3.39,51.9,51.9,0,0,1,20.34,10.85A49.77,49.77,0,0,1,1722,95.78q4.74,12,4.74,29V242.08h-48.14V142.74q0-8.81-.68-16.61a35.44,35.44,0,0,0-3.73-13.56,22.54,22.54,0,0,0-9-9.16q-5.94-3.39-16.11-3.39t-16.44,3.9a28.27,28.27,0,0,0-9.84,10.17,40.84,40.84,0,0,0-4.74,14.24,108,108,0,0,0-1.19,16.11v97.64h-48.14V143.76q0-7.8-.34-15.43a43.34,43.34,0,0,0-2.89-14.07,21.65,21.65,0,0,0-8.47-10.34q-5.94-3.9-17.46-3.9a36,36,0,0,0-9,1.53,29.75,29.75,0,0,0-10.85,5.76,33.7,33.7,0,0,0-9,12.21q-3.74,8-3.73,20.85V242.08h-48.15V66.79Z"/><path d="M1800.33,200q10.86,10.52,31.2,10.51,14.57,0,25.09-7.29t12.88-15.43h42.38q-10.17,31.54-31.19,45.1t-50.86,13.56q-20.68,0-37.29-6.61a77.46,77.46,0,0,1-28.14-18.82,84.57,84.57,0,0,1-17.81-29.16,106.74,106.74,0,0,1-6.27-37.29,102.34,102.34,0,0,1,6.44-36.62,84.72,84.72,0,0,1,46.62-48.82,90.75,90.75,0,0,1,36.45-7.12q22.38,0,39,8.64a77.87,77.87,0,0,1,27.3,23.23,95.42,95.42,0,0,1,15.42,33.22,123.77,123.77,0,0,1,3.39,39H1788.47Q1789.49,189.52,1800.33,200Zm54.42-92.22q-8.64-9.5-26.27-9.49-11.54,0-19.16,3.89a36.61,36.61,0,0,0-12.21,9.67,35.35,35.35,0,0,0-6.44,12.2,55.13,55.13,0,0,0-2.2,11.53h78.32Q1863.4,117.32,1854.75,107.82Z"/></svg>