<?xml version="1.0" encoding="utf-8"?>
<!-- Generator: Adobe Illustrator 25.2.3, SVG Export Plug-In . SVG Version: 6.00 Build 0)  -->
<svg version="1.1" id="Layer_2" xmlns="http://www.w3.org/2000/svg" xmlns:xlink="http://www.w3.org/1999/xlink" x="0px" y="0px"
	 viewBox="0 0 48 48" style="enable-background:new 0 0 48 48;" xml:space="preserve">
<style type="text/css">
	.st0{opacity:0.5;}
</style>
<g>
	<path d="M38.7,19.4L28.1,8.8c-1.2-1.2-3.1-1.2-4.2,0l-7.8,7.8l14.8,14.8l7.8-7.8C39.9,22.5,39.9,20.6,38.7,19.4z"/>
</g>
<g class="st0">
	<path d="M36.8,32l-6.5,0l0.6-0.6L16.1,16.6l-7.8,7.8c-1.2,1.2-1.2,3.1,0,4.2l4,4l4.6,4.6c0.6,0.6,1.3,0.9,2.1,0.9h5.4H37
		c1.7,0,3.1-1.4,3-3.2C39.9,33.2,38.5,32,36.8,32z"/>
</g>
</svg>
