<?xml version="1.0" encoding="utf-8"?>
<!-- Generator: Adobe Illustrator 25.2.3, SVG Export Plug-In . SVG Version: 6.00 Build 0)  -->
<svg version="1.1" id="Layer_1" xmlns="http://www.w3.org/2000/svg" xmlns:xlink="http://www.w3.org/1999/xlink" x="0px" y="0px"
	 viewBox="0 0 48 48" style="enable-background:new 0 0 48 48;" xml:space="preserve">
<style type="text/css">
	.st0{display:none;}
	.st1{display:inline;}
	.st2{opacity:0.75;}
	.st3{opacity:0.5;}
</style>
<g class="st0">
	<path class="st1" d="M33,10H22c-1.7,0-3,1.3-3,3v16c0,1.7,1.3,3,3,3h11c1.7,0,3-1.3,3-3V13C36,11.3,34.7,10,33,10z"/>
</g>
<g class="st2">
	<path d="M22,34c-2.8,0-5-2.2-5-5V16h-2c-1.7,0-3,1.3-3,3v16c0,1.7,1.3,3,3,3h11c1.7,0,3-1.3,3-3v-1H22z"/>
</g>
<g class="st3">
	<path d="M29.8,10H22c-1.7,0-3,1.3-3,3v16c0,1.7,1.3,3,3,3h11c1.7,0,3-1.3,3-3V16.2c0-0.8-0.3-1.6-0.9-2.1l-3.2-3.2
		C31.3,10.3,30.6,10,29.8,10z"/>
</g>
<g class="st3">
	<path d="M29.8,10H29v7h7v-0.8c0-0.8-0.3-1.6-0.9-2.1l-3.2-3.2C31.3,10.3,30.6,10,29.8,10z"/>
</g>
</svg>
